<?xml version="1.0" standalone="no"?><!DOCTYPE svg PUBLIC "-//W3C//DTD SVG 1.1//EN" "http://www.w3.org/Graphics/SVG/1.1/DTD/svg11.dtd"><svg class="icon" width="128px" height="128.00px" viewBox="0 0 1024 1024" version="1.1" xmlns="http://www.w3.org/2000/svg"><path d="M444.209298 0A425.489202 425.489202 0 0 0 27.691254 432.537969a425.489202 425.489202 0 0 0 416.518044 432.537969A425.489202 425.489202 0 0 0 860.727343 432.537969 425.489202 425.489202 0 0 0 444.209298 0z m0 710.003066a272.979518 272.979518 0 0 1-267.212345-277.465097A272.979518 272.979518 0 0 1 444.209298 154.432075a272.979518 272.979518 0 0 1 267.212346 278.105894 272.979518 272.979518 0 0 1-267.212346 277.465097z m537.628676 176.85997l-91.63397-94.837955a49.341368 49.341368 0 0 0-70.487669 0l-46.77818 48.700572a51.904556 51.904556 0 0 0 0 73.050857l90.993173 94.837954a48.059774 48.059774 0 0 0 70.487669 0l47.418977-48.700571a53.18615 53.18615 0 0 0 0-73.050857z" fill="#707070" /></svg>