<?xml version="1.0" standalone="no"?><!DOCTYPE svg PUBLIC "-//W3C//DTD SVG 1.1//EN" "http://www.w3.org/Graphics/SVG/1.1/DTD/svg11.dtd"><svg class="icon" width="128px" height="128.00px" viewBox="0 0 1024 1024" version="1.1" xmlns="http://www.w3.org/2000/svg"><path d="M853.225717 464.301579a46.482271 46.482271 0 0 0-46.550528-47.779133 47.779133 47.779133 0 0 0-46.550527 47.779133 248.34911 248.34911 0 1 1-496.425197 0 46.550527 46.550527 0 1 0-93.066926 0 349.19721 349.19721 0 0 0 294.763125 348.446395v115.693759H310.249992a47.779133 47.779133 0 0 0 0 95.558267h403.358271a47.779133 47.779133 0 0 0 0-95.558267h-155.145672v-115.693759A347.661452 347.661452 0 0 0 853.225717 464.301579z m-341.279525 175.076396a188.761705 188.761705 0 0 0 186.16798-191.116534V191.277959a186.236237 186.236237 0 1 0-372.335961 0v256.983482A188.761705 188.761705 0 0 0 511.946192 639.377975z" fill="#8a8a8a" /></svg>